nColumns=19
nRows=88
DataType=double
version=3
OpenSimVersion=4.1
endheader
time	ground_force_calcn_r_vx	ground_force_calcn_r_vy	ground_force_calcn_r_vz	ground_force_calcn_r_px	ground_force_calcn_r_py	ground_force_calcn_r_pz	ground_force_calcn_r_mx	ground_force_calcn_r_my	ground_force_calcn_r_mz	ground_force_calcn_l_vx	ground_force_calcn_l_vy	ground_force_calcn_l_vz	ground_force_calcn_l_px	ground_force_calcn_l_py	ground_force_calcn_l_pz	ground_force_calcn_l_mx	ground_force_calcn_l_my	ground_force_calcn_l_mz
0	-42.2149	344.36	-10.0224	0.29933	0	-0.130356	0.00442017	-0.0360566	0.00104941	0	0	0	0	0	0	0	0	0
0.01	-48.0651	369.524	-10.589	0.303279	0	-0.130591	-0.00279601	0.0214957	-0.000615977	0	0	0	0	0	0	0	0	0
0.02	-54.1035	396.783	-11.2306	0.307828	0	-0.130831	-0.0119061	0.0873166	-0.00247142	0	0	0	0	0	0	0	0	0
0.03	-60.0707	425.372	-11.962	0.312181	0	-0.131028	-0.022399	0.158611	-0.00446037	0	0	0	0	0	0	0	0	0
0.04	-65.7377	454.559	-12.8075	0.316283	0	-0.131167	-0.0334922	0.23159	-0.0065252	0	0	0	0	0	0	0	0	0
0.05	-70.9127	483.685	-13.774	0.320114	0	-0.131248	-0.0444727	0.303342	-0.00863835	0	0	0	0	0	0	0	0	0
0.06	-75.427	512.125	-14.8432	0.323673	0	-0.131271	-0.0548575	0.372465	-0.0107954	0	0	0	0	0	0	0	0	0
0.07	-79.1378	539.253	-15.9846	0.32698	0	-0.131238	-0.0642876	0.438063	-0.0129851	0	0	0	0	0	0	0	0	0
0.08	-81.9386	564.448	-17.1655	0.330067	0	-0.131153	-0.0724763	0.499265	-0.0151832	0	0	0	0	0	0	0	0	0
0.09	-83.7669	587.115	-18.3476	0.332975	0	-0.131016	-0.0792318	0.555328	-0.0173543	0	0	0	0	0	0	0	0	0
0.1	-84.6067	606.724	-19.4889	0.335749	0	-0.130829	-0.0843924	0.605187	-0.0194395	0	0	0	0	0	0	0	0	0
0.11	-84.4825	622.851	-20.5454	0.338435	0	-0.130595	-0.0878008	0.647316	-0.0213524	0	0	0	0	0	0	0	0	0
0.12	-83.4482	635.2	-21.4721	0.341071	0	-0.130318	-0.0892991	0.679737	-0.0229776	0	0	0	0	0	0	0	0	0
0.13	-81.5786	643.615	-22.2268	0.343689	0	-0.130001	-0.0887276	0.700017	-0.0241746	0	0	0	0	0	0	0	0	0
0.14	-78.9648	648.09	-22.7754	0.34632	0	-0.129647	-0.0859807	0.705671	-0.024799	0	0	0	0	0	0	0	0	0
0.15	-75.7122	648.77	-23.0978	0.348985	0	-0.129261	-0.0810542	0.694546	-0.0247275	0	0	0	0	0	0	0	0	0
0.16	-71.9369	645.939	-23.192	0.351706	0	-0.128845	-0.074058	0.664985	-0.0238758	0	0	0	0	0	0	0	0	0
0.17	-67.7612	639.994	-23.0732	0.3545	0	-0.128403	-0.0652129	0.615926	-0.0222055	0	0	0	0	0	0	0	0	0
0.18	-63.3074	631.417	-22.7706	0.357384	0	-0.127936	-0.0548432	0.546997	-0.0197262	0	0	0	0	0	0	0	0	0
0.19	-58.6922	620.743	-22.3219	0.360371	0	-0.127447	-0.0433492	0.458471	-0.0164866	0	0	0	0	0	0	0	0	0
0.2	-54.0229	608.531	-21.7669	0.363471	0	-0.126937	-0.031164	0.351041	-0.0125566	0	0	0	0	0	0	0	0	0
0.21	-49.3937	595.345	-21.1427	0.366687	0	-0.12641	-0.0187153	0.225577	-0.008011	0	0	0	0	0	0	0	0	0
0.22	-44.8824	581.728	-20.4795	0.370016	0	-0.125871	-0.00639648	0.0829057	-0.00291866	0	0	0	0	0	0	0	0	0
0.23	-40.5478	568.195	-19.7991	0.373452	0	-0.125325	0.00544557	-0.0763087	0.00265903	0	0	0	0	0	0	0	0	0
0.24	-36.4304	555.221	-19.117	0.376975	0	-0.124783	0.016503	-0.251515	0.00865997	0	0	0	0	0	0	0	0	0
0.25	-32.5542	543.227	-18.4444	0.380561	0	-0.124252	0.0265044	-0.442276	0.0150168	0	0	0	0	0	0	0	0	0
0.26	-28.9279	532.572	-17.793	0.384181	0	-0.123743	0.0352125	-0.648275	0.0216586	0	0	0	0	0	0	0	0	0
0.27	-25.547	523.554	-17.1784	0.387796	0	-0.123265	0.0424065	-0.869068	0.0285151	0	0	0	0	0	0	0	0	0
0.28	-22.3951	516.399	-16.6228	0.391372	0	-0.122825	0.0478639	-1.10367	0.0355271	0	0	0	0	0	0	0	0	0
0.29	-19.4451	511.266	-16.1556	0.39487	0	-0.122428	0.051358	-1.35034	0.0426699	0	0	0	0	0	0	0	0	0
0.3	-16.6604	508.245	-15.8108	0.398256	0	-0.122077	0.0526605	-1.60647	0.0499751	0	0	0	0	0	0	0	0	0
0.31	-13.9958	507.361	-15.6234	0.4015	0	-0.121772	0.0515477	-1.86865	0.0575422	0	0	0	0	0	0	0	0	0
0.32	-11.4005	508.573	-15.6263	0.404581	0	-0.121509	0.0478105	-2.13282	0.0655325	0	0	0	0	0	0	0	0	0
0.33	-8.82011	511.785	-15.848	0.407485	0	-0.121284	0.0412635	-2.3943	0.0741424	0	0	0	0	0	0	0	0	0
0.34	-6.20011	516.846	-16.3101	0.410208	0	-0.121094	0.0317637	-2.64785	0.0835579	0	0	0	0	0	0	0	0	0
0.35	-3.48838	523.563	-17.0243	0.412756	0	-0.120931	0.0192406	-2.88778	0.0938994	0	0	0	0	0	0	0	0	0
0.36	-0.637522	531.707	-17.9897	0.415146	0	-0.120792	0.00372692	-3.10833	0.105167	0	0	0	0	0	0	0	0	0
0.37	2.3933	541.02	-19.1905	0.417398	0	-0.120672	-0.0146159	-3.30401	0.117196	0	0	0	0	0	0	0	0	0
0.38	5.6369	551.231	-20.5957	0.419543	0	-0.120572	-0.0354824	-3.46982	0.129643	0	0	0	0	0	0	0	0	0
0.39	9.11655	562.058	-22.1609	0.421605	0	-0.120488	-0.0584148	-3.60142	0.141997	0	0	0	0	0	0	0	0	0
0.4	12.8453	573.217	-23.8292	0.423616	0	-0.120423	-0.0828083	-3.69528	0.153617	0	0	0	0	0	0	0	0	0
0.41	16.8266	584.414	-25.534	0.425596	0	-0.120376	-0.107937	-3.74881	0.163792	0	0	0	0	0	0	0	0	0
0.42	21.0555	595.342	-27.2011	0.42757	0	-0.120349	-0.133	-3.76057	0.17182	0	0	0	0	0	0	0	0	0
0.43	25.5189	605.671	-28.7532	0.429548	0	-0.120343	-0.157168	-3.73026	0.177088	0	0	0	0	0	0	0	0	0
0.44	30.1946	615.046	-30.114	0.431544	0	-0.120358	-0.17963	-3.65895	0.17915	0	0	0	0	0	0	0	0	0
0.45	35.0519	623.084	-31.2114	0.433561	0	-0.120396	-0.199653	-3.54903	0.177778	0	0	0	0	0	0	0	0	0
0.46	40.0509	629.381	-31.9808	0.435603	0	-0.120459	-0.216631	-3.40425	0.172981	0	0	0	0	0	0	0	0	0
0.47	45.1407	633.509	-32.3665	0.437667	0	-0.120549	-0.23014	-3.22981	0.165014	0	0	0	0	0	0	0	0	0
0.48	50.2562	635.028	-32.3237	0.439755	0	-0.120666	-0.239966	-3.03216	0.154341	8.0947	27.3537	-3.61384	0.787451	0	-0.198586	0.228772	0.773068	-0.102134
0.49	55.3138	633.494	-31.8205	0.44186	0	-0.120815	-0.246105	-2.81858	0.141578	8.47259	41.1957	-3.90907	0.811385	0	-0.21554	0.164878	0.801673	-0.076071
0.5	60.2095	628.476	-30.8419	0.443983	0	-0.120993	-0.248743	-2.59642	0.127417	8.23879	57.6486	-4.17489	0.827223	0	-0.224653	0.116291	0.813716	-0.0589289
0.51	64.8197	619.575	-29.3922	0.446123	0	-0.121201	-0.248212	-2.37252	0.112551	7.16493	76.6194	-4.37907	0.839025	0	-0.230125	0.0764239	0.817253	-0.0467089
0.52	69.0043	606.465	-27.497	0.448282	0	-0.121437	-0.244953	-2.15284	0.0976095	5.10166	97.9796	-4.48297	0.848629	0	-0.233692	0.0424647	0.815555	-0.0373149
0.53	72.6125	588.919	-25.2029	0.450462	0	-0.121697	-0.239478	-1.94227	0.0831199	2.03627	121.678	-4.44172	0.856961	0	-0.236188	0.0135751	0.811186	-0.0296114
0.54	75.4884	566.835	-22.577	0.452667	0	-0.121976	-0.23229	-1.74424	0.069473	-1.97563	147.707	-4.20081	0.864495	0	-0.238054	-0.0107871	0.80649	-0.0229367
0.55	77.478	540.254	-19.7067	0.454899	0	-0.122267	-0.223764	-1.5603	0.056915	-6.85312	176.031	-3.69964	0.871476	0	-0.239536	-0.0312909	0.803746	-0.0168923
0.56	78.4393	509.367	-16.6943	0.457165	0	-0.122565	-0.214106	-1.39035	0.0455682	-12.4886	206.536	-2.87782	0.878026	0	-0.240773	-0.0486731	0.804954	-0.011216
0.57	78.2516	474.525	-13.6483	0.459474	0	-0.122859	-0.203379	-1.23331	0.0354724	-18.7448	239.001	-1.68234	0.884199	0	-0.241856	-0.0636118	0.811068	-0.00570913
0.58	76.8259	436.25	-10.6767	0.46184	0	-0.123142	-0.191571	-1.08782	0.0266232	-25.4509	273.074	-0.0823638	0.890018	0	-0.242832	-0.0765417	0.821248	-0.000247703
0.59	74.1149	395.232	-7.88278	0.464281	0	-0.123408	-0.178618	-0.952514	0.0189976	-32.397	308.265	1.92095	0.895479	0	-0.243731	-0.0875614	0.833166	0.00519188
0.6	70.1319	352.318	-5.36031	0.466827	0	-0.123649	-0.164483	-0.826306	0.0125717	-39.3469	344.002	4.30138	0.900584	0	-0.24457	-0.0965874	0.844444	0.0105589
0.61	64.9707	308.484	-3.1844	0.469513	0	-0.123858	-0.14933	-0.709027	0.00731908	-46.077	379.736	7.01765	0.905345	0	-0.24536	-0.103593	0.853745	0.0157775
0.62	58.8077	264.785	-1.40354	0.472394	0	-0.124029	-0.133514	-0.601155	0.00318653	-52.4002	415.017	10.0092	0.909782	0	-0.246108	-0.108623	0.860309	0.0207485
0.63	51.8968	222.294	-0.0349466	0.475546	0	-0.124152	-0.117451	-0.503087	7.90898e-05	-58.155	449.474	13.1866	0.913914	0	-0.246817	-0.111712	0.863408	0.0253306
0.64	44.5552	182.019	0.93781	0.47909	0	-0.124218	-0.101599	-0.415059	-0.00213849	-63.1969	482.739	16.4351	0.917761	0	-0.247485	-0.11292	0.862554	0.0293661
0.65	37.1259	144.832	1.56137	0.48322	0	-0.124207	-0.0863827	-0.336989	-0.00363292	-67.4013	514.395	19.6328	0.921339	0	-0.248106	-0.112431	0.858052	0.032749
0.66	29.9381	111.401	1.90331	0.48827	0	-0.124089	-0.0722319	-0.268779	-0.00459214	-70.6738	543.96	22.6693	0.92467	0	-0.248684	-0.110615	0.851375	0.0354807
0.67	23.2694	82.1549	2.03646	0.494872	0	-0.123804	-0.0596838	-0.21072	-0.00522334	-72.9583	570.908	25.452	0.927785	0	-0.249219	-0.107955	0.844764	0.037661
0.68	17.3196	57.282	2.0254	0.504337	0	-0.123237	-0.0495213	-0.163784	-0.00579115	-74.2419	594.714	27.9068	0.93072	0	-0.249718	-0.104945	0.840663	0.0394479
0.69	12.1993	36.7499	1.9195	0.519898	0	-0.122125	-0.0433624	-0.130627	-0.00682283	-74.5515	614.904	29.9793	0.933517	0	-0.250185	-0.102031	0.841554	0.0410295
0.7	7.93445	20.3397	1.75388	0.550901	0	-0.120123	-0.0465161	-0.119243	-0.0102822	-73.9501	631.109	31.6334	0.936218	0	-0.250627	-0.0995765	0.84981	0.0425955
0.71	0	0	0	0	0	0	0	0	0	-72.528	643.093	32.8495	0.938867	0	-0.251051	-0.0978433	0.867559	0.0443154
0.72	0	0	0	0	0	0	0	0	0	-70.3932	650.776	33.6255	0.941503	0	-0.251463	-0.0969626	0.896407	0.0463172
0.73	0	0	0	0	0	0	0	0	0	-67.6636	654.248	33.9765	0.944163	0	-0.251866	-0.0969286	0.937215	0.0486716
0.74	0	0	0	0	0	0	0	0	0	-64.46	653.77	33.9327	0.946874	0	-0.252264	-0.0976263	0.990151	0.0513919
0.75	0	0	0	0	0	0	0	0	0	-60.9002	649.754	33.536	0.949661	0	-0.252659	-0.0988688	1.05485	0.0544442
0.76	0	0	0	0	0	0	0	0	0	-57.094	642.721	32.8368	0.952539	0	-0.253052	-0.100434	1.13061	0.0577634
0.77	0	0	0	0	0	0	0	0	0	-53.1397	633.258	31.8913	0.955515	0	-0.253442	-0.102101	1.21672	0.0612747
0.78	0	0	0	0	0	0	0	0	0	-49.1218	621.975	30.7577	0.958593	0	-0.253832	-0.103658	1.31251	0.0649059
0.79	0	0	0	0	0	0	0	0	0	-45.1108	609.476	29.4936	0.961765	0	-0.254221	-0.104916	1.41748	0.0685946
0.8	0	0	0	0	0	0	0	0	0	-41.1634	596.33	28.1543	0.965022	0	-0.254609	-0.105683	1.53101	0.0722833
0.81	0	0	0	0	0	0	0	0	0	-37.3237	583.062	26.7906	0.968349	0	-0.254995	-0.105776	1.6524	0.0759247
0.82	0	0	0	0	0	0	0	0	0	-33.6237	570.142	25.4478	0.971725	0	-0.255378	-0.10503	1.78094	0.0794908
0.83	0	0	0	0	0	0	0	0	0	-30.0838	557.984	24.1658	0.975126	0	-0.255757	-0.103296	1.91589	0.0829755
0.84	0	0	0	0	0	0	0	0	0	-26.7133	546.939	22.9793	0.978524	0	-0.256132	-0.100431	2.05626	0.0863923
0.85	0	0	0	0	0	0	0	0	0	-23.5108	537.299	21.9188	0.981891	0	-0.256499	-0.0962966	2.2007	0.0897762
0.86	0	0	0	0	0	0	0	0	0	-20.4645	529.292	21.0103	0.985193	0	-0.256859	-0.0907684	2.34762	0.093189
0.87	0	0	0	0	0	0	0	0	0	-17.5534	523.085	20.2757	0.988403	0	-0.25721	-0.0837323	2.49519	0.0967182
